<svg xmlns="http://www.w3.org/2000/svg" viewBox="0 2.5900001525878906 95.83000183105469 57.7400016784668" data-asc="0.9267578125"><g fill="#2a34c0"><g fill="#2a34c0" transform="translate(0, 0)"><path d="M14.50 50.05Q13.77 50.05 13.35 49.51Q12.94 48.97 12.68 47.88Q12.43 46.78 12.23 45.13Q12.04 43.48 11.74 41.25Q11.45 39.01 10.99 36.21Q10.52 33.40 9.69 29.98Q9.11 27.59 8.18 25.38Q7.25 23.17 6.18 21.24Q5.10 19.31 4.00 17.72Q2.91 16.14 2.03 15.00Q1.15 13.87 0.57 13.24Q0 12.62 0 12.60L2.00 10.60Q2.03 10.64 2.49 11.17Q2.95 11.69 3.67 12.72Q4.39 13.75 5.30 15.31Q6.20 16.87 7.15 18.98Q8.11 21.09 9.03 23.79Q9.96 26.49 10.69 29.79Q11.72 34.38 12.23 37.96Q12.74 41.55 13.05 44.02Q13.35 46.48 13.65 47.77Q13.94 49.05 14.55 49.05Q15.45 48.07 16.14 46.55Q16.82 45.02 17.37 43.12Q17.92 41.21 18.35 39.03Q18.77 36.84 19.12 34.55Q19.46 32.25 19.76 29.93Q20.07 27.61 20.37 25.46Q20.68 23.32 21.01 21.42Q21.34 19.53 21.75 18.09Q22.56 15.23 23.74 13.01Q24.93 10.79 26.26 9.11Q27.59 7.42 28.96 6.23Q30.32 5.03 31.48 4.26Q32.64 3.49 33.51 3.10Q34.38 2.71 34.69 2.59L35.16 3.44Q35.13 3.47 34.47 3.85Q33.81 4.22 32.79 5.10Q31.76 5.98 30.48 7.42Q29.20 8.86 27.94 11.01Q26.68 13.16 25.56 16.05Q24.44 18.95 23.71 22.73Q23.54 23.58 23.21 25.22Q22.88 26.86 22.41 28.94Q21.95 31.03 21.39 33.40Q20.83 35.77 20.18 38.11Q19.53 40.45 18.82 42.61Q18.12 44.78 17.40 46.42Q16.67 48.07 15.94 49.06Q15.21 50.05 14.50 50.05ZM32.28 43.80Q30.74 43.80 29.72 42.55Q28.71 41.31 28.71 38.79Q28.71 37.13 29.38 34.56Q30.05 31.98 31.71 28.74L32.62 28.98Q32.47 29.61 32.14 30.71Q31.81 31.81 31.48 33.17Q31.15 34.52 30.91 36.00Q30.66 37.48 30.66 38.84Q30.66 39.99 30.83 40.71Q31.01 41.43 31.29 41.83Q31.57 42.24 31.95 42.38Q32.32 42.53 32.76 42.53Q33.47 42.53 34.11 42.09Q34.74 41.65 35.31 40.93Q35.89 40.21 36.39 39.32Q36.89 38.43 37.29 37.52Q37.70 36.62 38.01 35.80Q38.33 34.99 38.53 34.40L39.48 34.64Q39.21 35.38 38.85 36.34Q38.50 37.30 38.05 38.33Q37.60 39.36 37.04 40.33Q36.47 41.31 35.77 42.08Q35.06 42.85 34.19 43.32Q33.33 43.80 32.28 43.80M36.23 21.04Q36.23 21.90 35.57 22.36Q34.91 22.83 33.91 22.83Q33.40 22.83 32.95 22.67Q32.50 22.51 32.17 22.25Q31.84 22.00 31.65 21.64Q31.47 21.29 31.47 20.90Q31.47 20.07 32.12 19.56Q32.76 19.04 33.62 19.04Q34.23 19.04 34.72 19.23Q35.21 19.41 35.55 19.70Q35.89 20.00 36.06 20.35Q36.23 20.70 36.23 21.04M34.91 21.04Q34.91 20.80 34.70 20.59Q34.50 20.39 34.08 20.39Q33.33 20.39 33.33 20.95Q33.33 21.22 33.56 21.40Q33.79 21.58 34.18 21.58Q34.55 21.58 34.73 21.42Q34.91 21.26 34.91 21.04ZM45.78 29.03Q46.85 29.03 47.62 29.31Q48.39 29.59 48.88 29.88Q49.05 26.68 49.44 24.21Q49.83 21.73 50.35 19.89Q50.88 18.04 51.49 16.78Q52.10 15.53 52.73 14.76Q53.37 13.99 53.97 13.66Q54.57 13.33 55.08 13.33Q56.18 13.33 56.75 14.26Q57.32 15.19 57.32 16.99Q57.32 17.94 57.12 19.42Q56.91 20.90 56.51 22.72Q56.10 24.54 55.53 26.61Q54.96 28.69 54.21 30.79Q53.47 32.89 52.59 34.94Q51.71 36.99 50.68 38.79Q50.78 40.19 50.99 41.04Q51.20 41.89 51.51 42.37Q51.83 42.85 52.25 43.02Q52.66 43.19 53.17 43.19Q53.88 43.19 54.54 42.71Q55.20 42.24 55.88 41.19Q56.57 40.14 57.30 38.46Q58.03 36.79 58.89 34.40L59.84 34.64Q59.13 36.52 58.42 38.29Q57.71 40.06 56.90 41.44Q56.08 42.82 55.10 43.65Q54.13 44.48 52.88 44.48Q51.34 44.48 50.49 43.57Q49.63 42.65 49.22 41.04Q47.80 43.12 46.18 44.35Q44.56 45.58 42.77 45.58Q41.77 45.58 40.84 45.20Q39.92 44.82 39.21 44.03Q38.50 43.24 38.06 42.00Q37.62 40.77 37.62 39.04Q37.62 37.23 38.20 35.45Q38.77 33.67 39.83 32.24Q40.89 30.81 42.40 29.92Q43.90 29.03 45.78 29.03M43.63 44.19Q45.00 44.19 46.37 42.98Q47.75 41.77 49.02 39.79Q48.88 38.65 48.83 37.35Q48.78 36.06 48.78 34.59Q48.78 33.67 48.78 32.75Q48.78 31.84 48.83 30.98Q48.71 30.88 48.47 30.71Q48.24 30.54 47.89 30.37Q47.53 30.20 47.08 30.09Q46.63 29.98 46.07 29.98Q45.24 29.98 44.19 30.44Q43.14 30.91 42.20 31.95Q41.26 32.98 40.63 34.64Q39.99 36.30 39.99 38.70Q39.99 39.84 40.25 40.84Q40.50 41.85 40.98 42.59Q41.46 43.33 42.13 43.76Q42.80 44.19 43.63 44.19M56.37 16.99Q56.37 16.63 56.34 16.16Q56.30 15.70 56.18 15.30Q56.05 14.89 55.82 14.61Q55.59 14.33 55.18 14.33Q54.17 14.33 53.33 15.99Q52.49 17.65 51.88 20.57Q51.27 23.49 50.93 27.42Q50.59 31.35 50.59 35.89L50.59 36.99Q51.42 35.35 52.17 33.50Q52.93 31.64 53.58 29.76Q54.22 27.88 54.74 26.03Q55.25 24.17 55.62 22.50Q55.98 20.83 56.18 19.41Q56.37 17.99 56.37 16.99ZM67.70 45.78Q67.70 42.65 67.99 39.94Q67.24 41.31 66.53 42.19Q65.82 43.07 65.12 43.58Q64.43 44.09 63.72 44.29Q63.01 44.48 62.28 44.48Q61.69 44.48 60.95 44.30Q60.21 44.12 59.55 43.55Q58.89 42.99 58.44 41.96Q57.98 40.92 57.98 39.18Q57.98 37.38 58.42 35.75Q58.86 34.13 59.42 32.89Q60.06 31.42 60.89 30.18L61.79 30.49Q61.74 30.57 61.47 31.38Q61.21 32.20 60.90 33.44Q60.60 34.67 60.34 36.15Q60.08 37.62 60.08 38.99Q60.08 41.04 60.83 42.26Q61.57 43.48 62.94 43.48Q63.67 43.48 64.38 42.99Q65.09 42.50 65.77 41.64Q66.46 40.77 67.14 39.59Q67.82 38.40 68.48 36.99Q68.95 34.57 69.59 32.69Q70.24 30.81 70.95 29.49L71.85 29.74Q71.36 31.86 71.00 33.95Q70.63 36.04 70.37 38.01Q70.12 39.99 69.97 41.83Q69.82 43.68 69.75 45.29Q70.80 44.53 71.72 43.60Q72.63 42.68 73.51 41.41Q74.39 40.14 75.26 38.43Q76.12 36.72 77.05 34.40L78.00 34.64Q77.05 37.11 76.16 38.93Q75.27 40.75 74.30 42.13Q73.34 43.51 72.24 44.58Q71.14 45.65 69.75 46.63Q69.68 49.32 69.26 51.37Q68.85 53.42 68.24 54.94Q67.63 56.47 66.87 57.50Q66.11 58.52 65.36 59.16Q64.60 59.79 63.88 60.06Q63.16 60.33 62.65 60.33Q61.74 60.33 61.02 59.95Q60.30 59.57 59.79 58.96Q59.28 58.35 59.01 57.57Q58.74 56.79 58.74 55.98Q58.74 54.59 59.41 53.36Q60.08 52.12 61.21 51.03Q62.33 49.93 63.78 48.96Q65.23 48.00 66.80 47.14Q67.26 46.83 67.70 46.63L67.70 45.78M62.70 59.33Q63.48 59.33 64.29 58.70Q65.11 58.08 65.81 56.73Q66.50 55.37 67.00 53.23Q67.50 51.10 67.65 48.10Q67.58 48.14 67.49 48.18Q67.41 48.22 67.33 48.29Q66.09 49.07 64.87 50.01Q63.65 50.95 62.68 52.03Q61.72 53.10 61.11 54.28Q60.50 55.47 60.50 56.74Q60.50 57.18 60.66 57.64Q60.82 58.11 61.11 58.48Q61.40 58.86 61.80 59.09Q62.21 59.33 62.70 59.33ZM95.83 34.64Q94.82 37.35 94.01 39.18Q93.19 41.02 92.42 42.14Q91.65 43.26 90.89 43.75Q90.14 44.24 89.23 44.24Q88.13 44.24 87.35 43.47Q86.57 42.70 86.38 41.09Q85.60 42.77 84.35 43.84Q83.11 44.90 81.23 44.90Q80.22 44.90 79.31 44.53Q78.39 44.17 77.69 43.40Q76.98 42.63 76.55 41.46Q76.12 40.28 76.12 38.70Q76.12 37.08 76.53 35.67Q76.93 34.25 77.59 33.07Q78.25 31.88 79.11 30.96Q79.98 30.03 80.91 29.39Q81.84 28.76 82.76 28.42Q83.69 28.08 84.47 28.08Q85.16 28.08 85.79 28.25Q86.43 28.42 86.93 28.80Q87.43 29.17 87.73 29.81Q88.04 30.44 88.04 31.40Q88.04 32.52 87.61 33.35Q87.18 34.18 86.58 34.74Q85.99 35.30 85.36 35.64Q84.74 35.99 84.38 36.13L84.08 35.18Q84.16 35.18 84.63 34.99Q85.11 34.79 85.63 34.34Q86.16 33.89 86.60 33.18Q87.04 32.47 87.04 31.45Q87.04 30.27 86.38 29.65Q85.72 29.03 84.69 29.03Q83.91 29.03 82.86 29.59Q81.81 30.15 80.85 31.35Q79.88 32.54 79.21 34.38Q78.54 36.21 78.54 38.75Q78.54 41.26 79.43 42.58Q80.32 43.90 81.84 43.90Q82.59 43.90 83.29 43.47Q83.98 43.04 84.57 42.33Q85.16 41.63 85.62 40.69Q86.08 39.75 86.43 38.75Q86.43 37.96 86.61 36.90Q86.79 35.84 87.18 34.74L88.67 35.23Q88.55 35.55 88.43 36.06Q88.31 36.57 88.20 37.18Q88.09 37.79 88.01 38.44Q87.94 39.09 87.94 39.70Q87.94 41.60 88.32 42.32Q88.70 43.04 89.62 43.04Q90.16 43.04 90.69 42.65Q91.21 42.26 91.82 41.28Q92.43 40.31 93.16 38.64Q93.90 36.96 94.87 34.40L95.83 34.64Z"/></g></g></svg>